<mxfile host="app.diagrams.net" modified="2024-05-23T05:36:44.751Z" agent="Mozilla/5.0 (Windows NT 10.0; Win64; x64) AppleWebKit/537.36 (KHTML, like Gecko) Chrome/125.0.0.0 Safari/537.36 Edg/125.0.0.0" etag="3uUlC6JFc0ptH74zGVzA" version="24.4.6" type="github">
  <diagram name="Page-1" id="V7EgAgGA362zwkshi-_R">
    <mxGraphModel dx="954" dy="542" grid="1" gridSize="10" guides="1" tooltips="1" connect="1" arrows="1" fold="1" page="1" pageScale="1" pageWidth="850" pageHeight="1100" math="0" shadow="0">
      <root>
        <mxCell id="0" />
        <mxCell id="1" parent="0" />
        <mxCell id="293EK7tKA1xx8MgygA2M-8" style="edgeStyle=orthogonalEdgeStyle;rounded=0;orthogonalLoop=1;jettySize=auto;html=1;exitX=1;exitY=0.5;exitDx=0;exitDy=0;" edge="1" parent="1" source="293EK7tKA1xx8MgygA2M-1">
          <mxGeometry relative="1" as="geometry">
            <mxPoint x="600" y="350" as="targetPoint" />
          </mxGeometry>
        </mxCell>
        <mxCell id="293EK7tKA1xx8MgygA2M-26" style="edgeStyle=orthogonalEdgeStyle;rounded=0;orthogonalLoop=1;jettySize=auto;html=1;exitX=0.5;exitY=1;exitDx=0;exitDy=0;entryX=0.5;entryY=0;entryDx=0;entryDy=0;" edge="1" parent="1" source="293EK7tKA1xx8MgygA2M-1" target="293EK7tKA1xx8MgygA2M-16">
          <mxGeometry relative="1" as="geometry" />
        </mxCell>
        <mxCell id="293EK7tKA1xx8MgygA2M-1" value="OBD Flag == 1" style="rhombus;whiteSpace=wrap;html=1;" vertex="1" parent="1">
          <mxGeometry x="320" y="310" width="130" height="80" as="geometry" />
        </mxCell>
        <mxCell id="293EK7tKA1xx8MgygA2M-5" value="Yes" style="text;html=1;align=center;verticalAlign=middle;whiteSpace=wrap;rounded=0;fontSize=14;" vertex="1" parent="1">
          <mxGeometry x="390" y="420" width="60" height="50" as="geometry" />
        </mxCell>
        <mxCell id="293EK7tKA1xx8MgygA2M-6" value="No" style="text;html=1;align=center;verticalAlign=middle;whiteSpace=wrap;rounded=0;fontSize=14;" vertex="1" parent="1">
          <mxGeometry x="490" y="300" width="60" height="50" as="geometry" />
        </mxCell>
        <mxCell id="293EK7tKA1xx8MgygA2M-11" value="" style="endArrow=classic;html=1;rounded=0;entryX=0.5;entryY=0;entryDx=0;entryDy=0;" edge="1" parent="1" target="293EK7tKA1xx8MgygA2M-22">
          <mxGeometry width="50" height="50" relative="1" as="geometry">
            <mxPoint x="385" y="80" as="sourcePoint" />
            <mxPoint x="385" y="150" as="targetPoint" />
          </mxGeometry>
        </mxCell>
        <mxCell id="293EK7tKA1xx8MgygA2M-13" value="Send Raw GPS data" style="rounded=0;whiteSpace=wrap;html=1;" vertex="1" parent="1">
          <mxGeometry x="600" y="320" width="120" height="60" as="geometry" />
        </mxCell>
        <mxCell id="293EK7tKA1xx8MgygA2M-14" value="Send last known co-ordinates" style="rounded=0;whiteSpace=wrap;html=1;" vertex="1" parent="1">
          <mxGeometry x="330" y="640" width="120" height="60" as="geometry" />
        </mxCell>
        <mxCell id="293EK7tKA1xx8MgygA2M-17" style="edgeStyle=orthogonalEdgeStyle;rounded=0;orthogonalLoop=1;jettySize=auto;html=1;exitX=0.5;exitY=1;exitDx=0;exitDy=0;" edge="1" parent="1" source="293EK7tKA1xx8MgygA2M-16">
          <mxGeometry relative="1" as="geometry">
            <mxPoint x="385" y="560" as="targetPoint" />
          </mxGeometry>
        </mxCell>
        <mxCell id="293EK7tKA1xx8MgygA2M-27" style="edgeStyle=orthogonalEdgeStyle;rounded=0;orthogonalLoop=1;jettySize=auto;html=1;exitX=1;exitY=0.5;exitDx=0;exitDy=0;entryX=0;entryY=0.5;entryDx=0;entryDy=0;" edge="1" parent="1" source="293EK7tKA1xx8MgygA2M-16" target="293EK7tKA1xx8MgygA2M-19">
          <mxGeometry relative="1" as="geometry" />
        </mxCell>
        <mxCell id="293EK7tKA1xx8MgygA2M-16" value="Vehicle Speed&amp;nbsp;&lt;div&gt;== 0&lt;/div&gt;" style="rhombus;whiteSpace=wrap;html=1;" vertex="1" parent="1">
          <mxGeometry x="325" y="490" width="120" height="80" as="geometry" />
        </mxCell>
        <mxCell id="293EK7tKA1xx8MgygA2M-19" value="Send Raw GPS data" style="rounded=0;whiteSpace=wrap;html=1;" vertex="1" parent="1">
          <mxGeometry x="600" y="500" width="120" height="60" as="geometry" />
        </mxCell>
        <mxCell id="293EK7tKA1xx8MgygA2M-20" value="Start" style="ellipse;whiteSpace=wrap;html=1;" vertex="1" parent="1">
          <mxGeometry x="325" width="120" height="80" as="geometry" />
        </mxCell>
        <mxCell id="293EK7tKA1xx8MgygA2M-24" style="edgeStyle=orthogonalEdgeStyle;rounded=0;orthogonalLoop=1;jettySize=auto;html=1;exitX=0.5;exitY=1;exitDx=0;exitDy=0;entryX=0.5;entryY=0;entryDx=0;entryDy=0;" edge="1" parent="1" source="293EK7tKA1xx8MgygA2M-22" target="293EK7tKA1xx8MgygA2M-1">
          <mxGeometry relative="1" as="geometry" />
        </mxCell>
        <mxCell id="293EK7tKA1xx8MgygA2M-22" value="Initialization&lt;div&gt;OBD Flag = 0&lt;/div&gt;&lt;div&gt;Vehicle Speed = -1&lt;/div&gt;" style="rounded=0;whiteSpace=wrap;html=1;" vertex="1" parent="1">
          <mxGeometry x="325" y="160" width="120" height="60" as="geometry" />
        </mxCell>
        <mxCell id="293EK7tKA1xx8MgygA2M-29" style="edgeStyle=orthogonalEdgeStyle;rounded=0;orthogonalLoop=1;jettySize=auto;html=1;exitX=0.5;exitY=1;exitDx=0;exitDy=0;" edge="1" parent="1" source="293EK7tKA1xx8MgygA2M-16">
          <mxGeometry relative="1" as="geometry">
            <mxPoint x="385" y="640" as="targetPoint" />
          </mxGeometry>
        </mxCell>
      </root>
    </mxGraphModel>
  </diagram>
</mxfile>
